<mxfile host="app.diagrams.net" modified="2023-09-15T17:53:11.723Z" agent="Mozilla/5.0 (Windows NT 10.0; Win64; x64) AppleWebKit/537.36 (KHTML, like Gecko) Chrome/116.0.0.0 Safari/537.36" etag="u5GLU5_9eoJSAM4bsdJM" version="21.7.5" type="device">
  <diagram name="Page-1" id="c7558073-3199-34d8-9f00-42111426c3f3">
    <mxGraphModel dx="1223" dy="1083" grid="1" gridSize="10" guides="1" tooltips="1" connect="1" arrows="1" fold="1" page="1" pageScale="1" pageWidth="826" pageHeight="1169" background="none" math="0" shadow="0">
      <root>
        <mxCell id="0" />
        <mxCell id="1" parent="0" />
        <mxCell id="wUK_hWIvIPXeK_BAVFJu-208" value="Депутат&lt;br&gt;" style="shape=umlActor;verticalLabelPosition=bottom;verticalAlign=top;html=1;outlineConnect=0;" parent="1" vertex="1">
          <mxGeometry x="899" y="310" width="30" height="60" as="geometry" />
        </mxCell>
        <mxCell id="wUK_hWIvIPXeK_BAVFJu-209" value="Помічник депутата&lt;br&gt;" style="shape=umlActor;verticalLabelPosition=bottom;verticalAlign=top;html=1;outlineConnect=0;" parent="1" vertex="1">
          <mxGeometry x="1609" y="377.5" width="30" height="60" as="geometry" />
        </mxCell>
        <mxCell id="wUK_hWIvIPXeK_BAVFJu-210" value="Громадянин" style="shape=umlActor;verticalLabelPosition=bottom;verticalAlign=top;html=1;outlineConnect=0;" parent="1" vertex="1">
          <mxGeometry x="910" y="160" width="30" height="60" as="geometry" />
        </mxCell>
        <mxCell id="wUK_hWIvIPXeK_BAVFJu-211" value="Державний орган" style="shape=umlActor;verticalLabelPosition=bottom;verticalAlign=top;html=1;outlineConnect=0;" parent="1" vertex="1">
          <mxGeometry x="899" y="472.5" width="30" height="60" as="geometry" />
        </mxCell>
        <mxCell id="wUK_hWIvIPXeK_BAVFJu-212" style="edgeStyle=orthogonalEdgeStyle;rounded=0;orthogonalLoop=1;jettySize=auto;html=1;entryX=0.5;entryY=0;entryDx=0;entryDy=0;" parent="1" source="wUK_hWIvIPXeK_BAVFJu-213" target="wUK_hWIvIPXeK_BAVFJu-215" edge="1">
          <mxGeometry relative="1" as="geometry" />
        </mxCell>
        <mxCell id="wUK_hWIvIPXeK_BAVFJu-213" value="&lt;p style=&quot;margin: 4px 0px 0px; text-align: center;&quot;&gt;1&lt;/p&gt;&lt;hr&gt;&lt;p style=&quot;margin: 0px; margin-left: 8px;&quot;&gt;Звернення до&amp;nbsp;&lt;/p&gt;&lt;p style=&quot;margin: 0px; margin-left: 8px;&quot;&gt;депутата&lt;/p&gt;" style="verticalAlign=middle;align=center;overflow=fill;fontSize=12;fontFamily=Helvetica;html=1;rounded=1;fontStyle=1;strokeWidth=3;fillColor=#E6FFCC" parent="1" vertex="1">
          <mxGeometry x="1059" y="145" width="110" height="75" as="geometry" />
        </mxCell>
        <mxCell id="wUK_hWIvIPXeK_BAVFJu-214" style="edgeStyle=orthogonalEdgeStyle;rounded=0;orthogonalLoop=1;jettySize=auto;html=1;entryX=0.5;entryY=0;entryDx=0;entryDy=0;" parent="1" source="wUK_hWIvIPXeK_BAVFJu-215" target="wUK_hWIvIPXeK_BAVFJu-218" edge="1">
          <mxGeometry relative="1" as="geometry" />
        </mxCell>
        <mxCell id="wUK_hWIvIPXeK_BAVFJu-215" value="&lt;p style=&quot;margin: 4px 0px 0px; text-align: center;&quot;&gt;&lt;strong style=&quot;&quot;&gt;2&lt;/strong&gt;&lt;/p&gt;&lt;hr&gt;&lt;p style=&quot;margin: 0px; margin-left: 8px;&quot;&gt;Групування&lt;/p&gt;&lt;p style=&quot;margin: 0px; margin-left: 8px;&quot;&gt;звернень&lt;/p&gt;" style="verticalAlign=middle;align=center;overflow=fill;fontSize=12;fontFamily=Helvetica;html=1;rounded=1;fontStyle=1;strokeWidth=3;fillColor=#E6FFCC" parent="1" vertex="1">
          <mxGeometry x="1059" y="260" width="110" height="75" as="geometry" />
        </mxCell>
        <mxCell id="wUK_hWIvIPXeK_BAVFJu-216" value="&amp;nbsp; 1&amp;nbsp; &amp;nbsp; &amp;nbsp;Звернення&amp;nbsp; &amp;nbsp; &amp;nbsp; &amp;nbsp; &amp;nbsp;" style="html=1;dashed=0;whitespace=wrap;shape=mxgraph.dfd.dataStoreID;align=left;spacingLeft=3;points=[[0,0],[0.5,0],[1,0],[0,0.5],[1,0.5],[0,1],[0.5,1],[1,1]];perimeterSpacing=1;fillColor=#ffff88;strokeColor=#36393d;" parent="1" vertex="1">
          <mxGeometry x="1199" y="282.5" width="100" height="30" as="geometry" />
        </mxCell>
        <mxCell id="wUK_hWIvIPXeK_BAVFJu-217" style="edgeStyle=orthogonalEdgeStyle;rounded=0;orthogonalLoop=1;jettySize=auto;html=1;entryX=0.5;entryY=0;entryDx=0;entryDy=0;" parent="1" source="wUK_hWIvIPXeK_BAVFJu-218" target="wUK_hWIvIPXeK_BAVFJu-219" edge="1">
          <mxGeometry relative="1" as="geometry" />
        </mxCell>
        <mxCell id="wUK_hWIvIPXeK_BAVFJu-218" value="&lt;p style=&quot;margin: 4px 0px 0px; text-align: center;&quot;&gt;&lt;strong style=&quot;&quot;&gt;3&lt;/strong&gt;&lt;/p&gt;&lt;hr&gt;&lt;p style=&quot;margin: 0px; margin-left: 8px;&quot;&gt;Обробка&amp;nbsp;&lt;/p&gt;&lt;p style=&quot;margin: 0px; margin-left: 8px;&quot;&gt;зверненя&lt;/p&gt;&lt;p style=&quot;margin: 0px; margin-left: 8px;&quot;&gt;&lt;span style=&quot;background-color: initial;&quot;&gt;[+]&lt;/span&gt;&lt;/p&gt;" style="verticalAlign=middle;align=center;overflow=fill;fontSize=12;fontFamily=Helvetica;html=1;rounded=1;fontStyle=1;strokeWidth=3;fillColor=#E6FFCC" parent="1" vertex="1">
          <mxGeometry x="1059" y="370" width="110" height="75" as="geometry" />
        </mxCell>
        <mxCell id="wUK_hWIvIPXeK_BAVFJu-219" value="&lt;p style=&quot;margin: 4px 0px 0px; text-align: center;&quot;&gt;&lt;strong style=&quot;&quot;&gt;4&lt;/strong&gt;&lt;/p&gt;&lt;hr&gt;&lt;p style=&quot;margin: 0px; margin-left: 8px;&quot;&gt;Написання&lt;/p&gt;&lt;p style=&quot;margin: 0px; margin-left: 8px;&quot;&gt;відповіді&lt;/p&gt;" style="verticalAlign=middle;align=center;overflow=fill;fontSize=12;fontFamily=Helvetica;html=1;rounded=1;fontStyle=1;strokeWidth=3;fillColor=#E6FFCC" parent="1" vertex="1">
          <mxGeometry x="1059" y="480" width="110" height="75" as="geometry" />
        </mxCell>
        <mxCell id="wUK_hWIvIPXeK_BAVFJu-220" value="" style="endArrow=classic;html=1;rounded=1;edgeStyle=orthogonalEdgeStyle;exitX=1;exitY=0.3333333333333333;exitDx=0;exitDy=0;exitPerimeter=0;entryX=0.009;entryY=0.459;entryDx=0;entryDy=0;entryPerimeter=0;" parent="1" source="wUK_hWIvIPXeK_BAVFJu-210" target="wUK_hWIvIPXeK_BAVFJu-213" edge="1">
          <mxGeometry width="50" height="50" relative="1" as="geometry">
            <mxPoint x="999" y="380" as="sourcePoint" />
            <mxPoint x="1030" y="150" as="targetPoint" />
            <Array as="points">
              <mxPoint x="1030" y="180" />
            </Array>
          </mxGeometry>
        </mxCell>
        <mxCell id="wUK_hWIvIPXeK_BAVFJu-221" value="" style="endArrow=classic;html=1;rounded=1;entryX=0;entryY=0.5;entryDx=0;entryDy=0;edgeStyle=orthogonalEdgeStyle;" parent="1" target="wUK_hWIvIPXeK_BAVFJu-218" edge="1">
          <mxGeometry width="50" height="50" relative="1" as="geometry">
            <mxPoint x="930" y="330" as="sourcePoint" />
            <mxPoint x="1049" y="330" as="targetPoint" />
          </mxGeometry>
        </mxCell>
        <mxCell id="wUK_hWIvIPXeK_BAVFJu-222" value="" style="endArrow=classic;html=1;rounded=1;entryX=0;entryY=0.5;entryDx=0;entryDy=0;edgeStyle=orthogonalEdgeStyle;exitX=1;exitY=0.3333333333333333;exitDx=0;exitDy=0;exitPerimeter=0;" parent="1" source="wUK_hWIvIPXeK_BAVFJu-208" target="wUK_hWIvIPXeK_BAVFJu-219" edge="1">
          <mxGeometry width="50" height="50" relative="1" as="geometry">
            <mxPoint x="849" y="363.67021276595733" as="sourcePoint" />
            <mxPoint x="1069" y="417.5" as="targetPoint" />
            <Array as="points">
              <mxPoint x="1010" y="330" />
              <mxPoint x="1010" y="518" />
            </Array>
          </mxGeometry>
        </mxCell>
        <mxCell id="wUK_hWIvIPXeK_BAVFJu-223" value="" style="endArrow=classic;html=1;rounded=1;entryX=0;entryY=0.25;entryDx=0;entryDy=0;edgeStyle=orthogonalEdgeStyle;exitX=1;exitY=0.3333333333333333;exitDx=0;exitDy=0;exitPerimeter=0;" parent="1" source="wUK_hWIvIPXeK_BAVFJu-210" target="wUK_hWIvIPXeK_BAVFJu-219" edge="1">
          <mxGeometry width="50" height="50" relative="1" as="geometry">
            <mxPoint x="999" y="380" as="sourcePoint" />
            <mxPoint x="1049" y="330" as="targetPoint" />
            <Array as="points">
              <mxPoint x="1030" y="180" />
              <mxPoint x="1030" y="499" />
              <mxPoint x="1059" y="499" />
            </Array>
          </mxGeometry>
        </mxCell>
        <mxCell id="wUK_hWIvIPXeK_BAVFJu-224" value="&amp;nbsp; &amp;nbsp;3&amp;nbsp; &amp;nbsp; Відповіді" style="html=1;dashed=0;whitespace=wrap;shape=mxgraph.dfd.dataStoreID;align=left;spacingLeft=3;points=[[0,0],[0.5,0],[1,0],[0,0.5],[1,0.5],[0,1],[0.5,1],[1,1]];perimeterSpacing=1;fillColor=#ffff88;strokeColor=#36393d;" parent="1" vertex="1">
          <mxGeometry x="1199" y="517.5" width="100" height="30" as="geometry" />
        </mxCell>
        <mxCell id="wUK_hWIvIPXeK_BAVFJu-225" value="" style="endArrow=classic;html=1;rounded=0;entryX=0;entryY=0.5;entryDx=0;entryDy=0;" parent="1" target="wUK_hWIvIPXeK_BAVFJu-224" edge="1">
          <mxGeometry width="50" height="50" relative="1" as="geometry">
            <mxPoint x="1170" y="533" as="sourcePoint" />
            <mxPoint x="1049" y="330" as="targetPoint" />
          </mxGeometry>
        </mxCell>
        <mxCell id="wUK_hWIvIPXeK_BAVFJu-226" value="" style="endArrow=classic;html=1;rounded=0;exitX=1;exitY=0.5;exitDx=0;exitDy=0;entryX=0;entryY=0.5;entryDx=0;entryDy=0;" parent="1" source="wUK_hWIvIPXeK_BAVFJu-215" target="wUK_hWIvIPXeK_BAVFJu-216" edge="1">
          <mxGeometry width="50" height="50" relative="1" as="geometry">
            <mxPoint x="999" y="380" as="sourcePoint" />
            <mxPoint x="1049" y="330" as="targetPoint" />
          </mxGeometry>
        </mxCell>
        <mxCell id="wUK_hWIvIPXeK_BAVFJu-227" value="&lt;p style=&quot;margin: 4px 0px 0px; text-align: center;&quot;&gt;&lt;strong style=&quot;&quot;&gt;5&lt;/strong&gt;&lt;/p&gt;&lt;hr&gt;&lt;p style=&quot;margin: 0px; margin-left: 8px;&quot;&gt;Аналіз&amp;nbsp;&lt;/p&gt;&lt;p style=&quot;margin: 0px; margin-left: 8px;&quot;&gt;звернень&lt;/p&gt;&lt;p style=&quot;margin: 0px; margin-left: 8px;&quot;&gt;[x]&lt;/p&gt;" style="verticalAlign=middle;align=center;overflow=fill;fontSize=12;fontFamily=Helvetica;html=1;rounded=1;fontStyle=1;strokeWidth=3;fillColor=#E6FFCC" parent="1" vertex="1">
          <mxGeometry x="1449" y="370" width="110" height="75" as="geometry" />
        </mxCell>
        <mxCell id="wUK_hWIvIPXeK_BAVFJu-228" value="" style="endArrow=classic;html=1;rounded=1;entryX=0;entryY=0.75;entryDx=0;entryDy=0;edgeStyle=orthogonalEdgeStyle;" parent="1" source="wUK_hWIvIPXeK_BAVFJu-224" target="wUK_hWIvIPXeK_BAVFJu-227" edge="1">
          <mxGeometry width="50" height="50" relative="1" as="geometry">
            <mxPoint x="999" y="380" as="sourcePoint" />
            <mxPoint x="1049" y="330" as="targetPoint" />
            <Array as="points">
              <mxPoint x="1430" y="533" />
              <mxPoint x="1430" y="426" />
              <mxPoint x="1449" y="426" />
            </Array>
          </mxGeometry>
        </mxCell>
        <mxCell id="wUK_hWIvIPXeK_BAVFJu-229" value="" style="endArrow=classic;html=1;rounded=1;exitX=1;exitY=0.5;exitDx=0;exitDy=0;entryX=0;entryY=0.25;entryDx=0;entryDy=0;edgeStyle=orthogonalEdgeStyle;" parent="1" source="wUK_hWIvIPXeK_BAVFJu-216" target="wUK_hWIvIPXeK_BAVFJu-227" edge="1">
          <mxGeometry width="50" height="50" relative="1" as="geometry">
            <mxPoint x="1380.0000000000005" y="515" as="sourcePoint" />
            <mxPoint x="1394" y="420" as="targetPoint" />
            <Array as="points">
              <mxPoint x="1430" y="298" />
              <mxPoint x="1430" y="389" />
              <mxPoint x="1449" y="389" />
            </Array>
          </mxGeometry>
        </mxCell>
        <mxCell id="wUK_hWIvIPXeK_BAVFJu-230" value="" style="endArrow=classic;html=1;rounded=0;exitX=1;exitY=0.5;exitDx=0;exitDy=0;" parent="1" source="wUK_hWIvIPXeK_BAVFJu-227" target="wUK_hWIvIPXeK_BAVFJu-209" edge="1">
          <mxGeometry width="50" height="50" relative="1" as="geometry">
            <mxPoint x="1029" y="380" as="sourcePoint" />
            <mxPoint x="1079" y="330" as="targetPoint" />
          </mxGeometry>
        </mxCell>
        <mxCell id="wUK_hWIvIPXeK_BAVFJu-231" value="&amp;nbsp; &amp;nbsp;2&amp;nbsp; &amp;nbsp; Листування з держ &lt;br&gt;&amp;nbsp; &amp;nbsp; &amp;nbsp; &amp;nbsp; &amp;nbsp;органами" style="html=1;dashed=0;whitespace=wrap;shape=mxgraph.dfd.dataStoreID;align=left;spacingLeft=3;points=[[0,0],[0.5,0],[1,0],[0,0.5],[1,0.5],[0,1],[0.5,1],[1,1]];perimeterSpacing=1;fillColor=#ffff88;strokeColor=#36393d;" parent="1" vertex="1">
          <mxGeometry x="1259" y="383.75" width="160" height="47.5" as="geometry" />
        </mxCell>
        <mxCell id="wUK_hWIvIPXeK_BAVFJu-232" value="" style="endArrow=classic;html=1;rounded=0;entryX=0;entryY=0.5;entryDx=0;entryDy=0;exitX=1;exitY=0.5;exitDx=0;exitDy=0;" parent="1" source="wUK_hWIvIPXeK_BAVFJu-218" target="wUK_hWIvIPXeK_BAVFJu-231" edge="1">
          <mxGeometry width="50" height="50" relative="1" as="geometry">
            <mxPoint x="1209" y="480" as="sourcePoint" />
            <mxPoint x="1179" y="417.5" as="targetPoint" />
          </mxGeometry>
        </mxCell>
        <mxCell id="wUK_hWIvIPXeK_BAVFJu-233" value="" style="endArrow=classic;html=1;rounded=0;exitX=1;exitY=0.5;exitDx=0;exitDy=0;entryX=0;entryY=0.5;entryDx=0;entryDy=0;" parent="1" source="wUK_hWIvIPXeK_BAVFJu-231" target="wUK_hWIvIPXeK_BAVFJu-227" edge="1">
          <mxGeometry width="50" height="50" relative="1" as="geometry">
            <mxPoint x="1059" y="380" as="sourcePoint" />
            <mxPoint x="1109" y="330" as="targetPoint" />
          </mxGeometry>
        </mxCell>
        <mxCell id="wUK_hWIvIPXeK_BAVFJu-234" value="" style="endArrow=classic;html=1;rounded=1;entryX=0;entryY=0.75;entryDx=0;entryDy=0;edgeStyle=orthogonalEdgeStyle;exitX=1;exitY=0.3333333333333333;exitDx=0;exitDy=0;exitPerimeter=0;" parent="1" source="wUK_hWIvIPXeK_BAVFJu-211" target="wUK_hWIvIPXeK_BAVFJu-218" edge="1">
          <mxGeometry width="50" height="50" relative="1" as="geometry">
            <mxPoint x="930" y="520" as="sourcePoint" />
            <mxPoint x="1259" y="330" as="targetPoint" />
            <Array as="points">
              <mxPoint x="994" y="493" />
              <mxPoint x="994" y="426" />
              <mxPoint x="1059" y="426" />
            </Array>
          </mxGeometry>
        </mxCell>
        <mxCell id="wUK_hWIvIPXeK_BAVFJu-236" value="" style="endArrow=classic;html=1;rounded=1;exitX=0.29;exitY=1.009;exitDx=0;exitDy=0;edgeStyle=orthogonalEdgeStyle;entryX=0.75;entryY=0;entryDx=0;entryDy=0;exitPerimeter=0;" parent="1" source="wUK_hWIvIPXeK_BAVFJu-216" target="wUK_hWIvIPXeK_BAVFJu-218" edge="1">
          <mxGeometry width="50" height="50" relative="1" as="geometry">
            <mxPoint x="1040" y="460" as="sourcePoint" />
            <mxPoint x="1200" y="380" as="targetPoint" />
            <Array as="points">
              <mxPoint x="1228" y="350" />
              <mxPoint x="1142" y="350" />
            </Array>
          </mxGeometry>
        </mxCell>
        <mxCell id="wUK_hWIvIPXeK_BAVFJu-237" value="" style="endArrow=classic;html=1;rounded=1;exitX=0.5;exitY=1;exitDx=0;exitDy=0;entryX=1;entryY=0.25;entryDx=0;entryDy=0;edgeStyle=orthogonalEdgeStyle;" parent="1" source="wUK_hWIvIPXeK_BAVFJu-231" target="wUK_hWIvIPXeK_BAVFJu-219" edge="1">
          <mxGeometry width="50" height="50" relative="1" as="geometry">
            <mxPoint x="1040" y="460" as="sourcePoint" />
            <mxPoint x="1090" y="410" as="targetPoint" />
            <Array as="points">
              <mxPoint x="1339" y="499" />
            </Array>
          </mxGeometry>
        </mxCell>
        <mxCell id="ZMrKhjkZ2EPQGpr6_din-2" value="" style="endArrow=none;html=1;rounded=0;entryX=1;entryY=0;entryDx=0;entryDy=0;exitX=1;exitY=1;exitDx=0;exitDy=0;" edge="1" parent="1" source="wUK_hWIvIPXeK_BAVFJu-216" target="wUK_hWIvIPXeK_BAVFJu-216">
          <mxGeometry width="50" height="50" relative="1" as="geometry">
            <mxPoint x="1310" y="370" as="sourcePoint" />
            <mxPoint x="1360" y="320" as="targetPoint" />
          </mxGeometry>
        </mxCell>
        <mxCell id="ZMrKhjkZ2EPQGpr6_din-3" value="" style="endArrow=none;html=1;rounded=0;entryX=1;entryY=0;entryDx=0;entryDy=0;exitX=1;exitY=1;exitDx=0;exitDy=0;" edge="1" parent="1">
          <mxGeometry width="50" height="50" relative="1" as="geometry">
            <mxPoint x="1299" y="547.5" as="sourcePoint" />
            <mxPoint x="1299" y="515.5" as="targetPoint" />
          </mxGeometry>
        </mxCell>
        <mxCell id="ZMrKhjkZ2EPQGpr6_din-4" value="" style="endArrow=none;html=1;rounded=0;entryX=1;entryY=0;entryDx=0;entryDy=0;" edge="1" parent="1" target="wUK_hWIvIPXeK_BAVFJu-231">
          <mxGeometry width="50" height="50" relative="1" as="geometry">
            <mxPoint x="1420" y="432" as="sourcePoint" />
            <mxPoint x="1370" y="292" as="targetPoint" />
          </mxGeometry>
        </mxCell>
        <mxCell id="ZMrKhjkZ2EPQGpr6_din-7" value="" style="endArrow=classic;html=1;rounded=1;edgeStyle=orthogonalEdgeStyle;entryX=0.75;entryY=0;entryDx=0;entryDy=0;exitX=0.29;exitY=0.959;exitDx=0;exitDy=0;exitPerimeter=0;" edge="1" parent="1" source="wUK_hWIvIPXeK_BAVFJu-216" target="wUK_hWIvIPXeK_BAVFJu-219">
          <mxGeometry width="50" height="50" relative="1" as="geometry">
            <mxPoint x="1240" y="340" as="sourcePoint" />
            <mxPoint x="1152" y="380" as="targetPoint" />
            <Array as="points">
              <mxPoint x="1228" y="315" />
              <mxPoint x="1228" y="315" />
              <mxPoint x="1228" y="460" />
              <mxPoint x="1142" y="460" />
            </Array>
          </mxGeometry>
        </mxCell>
      </root>
    </mxGraphModel>
  </diagram>
</mxfile>
